<svg width="512" height="512" viewBox="0 0 512 512" fill="none" xmlns="http://www.w3.org/2000/svg">
<path d="M512 256C512 397.385 397.385 512 256 512C114.615 512 0 397.385 0 256C0 114.615 114.615 0 256 0C397.385 0 512 114.615 512 256ZM97.78 256C97.78 343.383 168.617 414.22 256 414.22C343.383 414.22 414.22 343.383 414.22 256C414.22 168.617 343.383 97.78 256 97.78C168.617 97.78 97.78 168.617 97.78 256Z" fill="black"/>
<path d="M353.575 255.787C353.575 309.794 309.794 353.575 255.787 353.575C201.781 353.575 158 309.794 158 255.787C158 201.781 201.781 158 255.787 158C309.794 158 353.575 201.781 353.575 255.787Z" fill="black"/>
</svg>
