<svg xmlns="http://www.w3.org/2000/svg" fill="currentColor" viewBox="0 0 1400 256">
  <path d="M1343.92 212.57c-12.57 0-23.38-2.55-32.45-7.64a52.27 52.27 0 0 1-20.84-21.8c-4.88-9.43-7.32-20.6-7.32-33.48 0-12.57 2.44-23.6 7.32-33.1a54.07 54.07 0 0 1 20.6-22.19c8.91-5.3 19.36-7.95 31.34-7.95 8.06 0 15.57 1.3 22.51 3.9 7 2.54 13.1 6.39 18.3 11.53 5.25 5.14 9.33 11.61 12.25 19.41 2.91 7.74 4.37 16.81 4.37 27.2v9.31h-103.17v-21h71.27c0-4.88-1.06-9.2-3.18-12.96a22.75 22.75 0 0 0-8.83-8.83c-3.71-2.18-8.03-3.27-12.96-3.27a26.1 26.1 0 0 0-13.68 3.58 25.2 25.2 0 0 0-9.23 9.47 26.67 26.67 0 0 0-3.42 13.13v19.96c0 6.05 1.11 11.27 3.34 15.67 2.28 4.4 5.49 7.8 9.62 10.18 4.14 2.39 9.05 3.58 14.72 3.58 3.77 0 7.21-.53 10.34-1.59a21.39 21.39 0 0 0 8.03-4.77 20.78 20.78 0 0 0 5.1-7.8l31.34 2.07a42.81 42.81 0 0 1-9.79 19.73c-4.88 5.57-11.19 9.92-18.93 13.05-7.69 3.07-16.57 4.6-26.65 4.6Zm-120.74 0c-12.52 0-23.28-2.65-32.3-7.96a53.81 53.81 0 0 1-20.68-22.27c-4.77-9.5-7.16-20.42-7.16-32.77 0-12.52 2.41-23.5 7.24-32.93a53.8 53.8 0 0 1 20.76-22.2c8.96-5.35 19.62-8.03 31.98-8.03 10.66 0 19.99 1.93 28 5.8a46.8 46.8 0 0 1 19.01 16.31c4.67 7 7.24 15.22 7.72 24.66h-31.98c-.9-6.1-3.29-11-7.16-14.71-3.82-3.77-8.83-5.65-15.04-5.65-5.25 0-9.83 1.43-13.76 4.3-3.87 2.8-6.89 6.91-9.06 12.32-2.18 5.41-3.27 11.96-3.27 19.65 0 7.8 1.06 14.42 3.19 19.89 2.17 5.46 5.22 9.62 9.14 12.49a22.72 22.72 0 0 0 13.76 4.3c3.88 0 7.35-.8 10.43-2.4a20.2 20.2 0 0 0 7.71-6.91 26.53 26.53 0 0 0 4.06-11.06h31.98c-.54 9.33-3.08 17.55-7.64 24.66-4.51 7.05-10.74 12.56-18.69 16.54-7.96 3.98-17.37 5.97-28.24 5.97Zm-139.1-.08c-7.8 0-14.75-1.35-20.85-4.06a33.57 33.57 0 0 1-14.47-12.17c-3.5-5.4-5.25-12.14-5.25-20.2 0-6.8 1.24-12.5 3.74-17.1a30.21 30.21 0 0 1 10.18-11.14 49.3 49.3 0 0 1 14.63-6.36c5.52-1.44 11.3-2.45 17.35-3.03 7.1-.74 12.83-1.43 17.18-2.07 4.35-.69 7.5-1.7 9.46-3.02 1.97-1.33 2.95-3.29 2.95-5.89v-.47c0-5.04-1.59-8.94-4.78-11.7-3.13-2.75-7.58-4.13-13.36-4.13-6.1 0-10.95 1.35-14.56 4.05-3.6 2.66-5.99 6-7.16 10.03l-31.34-2.55a42.55 42.55 0 0 1 9.39-19.25c4.67-5.46 10.69-9.65 18.06-12.57 7.42-2.97 16.01-4.45 25.77-4.45 6.79 0 13.28.8 19.49 2.39a50.88 50.88 0 0 1 16.62 7.4 35.95 35.95 0 0 1 11.54 12.88c2.81 5.2 4.21 11.43 4.21 18.7v82.4h-32.13v-16.94h-.96a34.57 34.57 0 0 1-7.87 10.1 36.44 36.44 0 0 1-11.86 6.76c-4.61 1.6-9.94 2.39-15.98 2.39Zm9.7-23.39c4.99 0 9.39-.98 13.2-2.94a23.35 23.35 0 0 0 8.99-8.12 20.87 20.87 0 0 0 3.26-11.53v-12.97a18.02 18.02 0 0 1-4.37 1.92c-1.8.53-3.84 1.03-6.13 1.5-2.28.43-4.56.83-6.84 1.2l-6.2.87a41.86 41.86 0 0 0-10.42 2.79c-2.97 1.27-5.28 3-6.92 5.17-1.65 2.12-2.47 4.77-2.47 7.95 0 4.62 1.67 8.14 5.01 10.58 3.4 2.39 7.69 3.58 12.89 3.58ZM918.68 256V88h33.41v20.52h1.51a44.82 44.82 0 0 1 6.45-10.02 33.96 33.96 0 0 1 11.13-8.6c4.62-2.32 10.35-3.5 17.19-3.5a46 46 0 0 1 24.66 7c7.53 4.62 13.55 11.6 18.05 20.93 4.51 9.28 6.76 20.92 6.76 34.92 0 13.63-2.2 25.14-6.6 34.52-4.35 9.34-10.29 16.42-17.82 21.24a45.72 45.72 0 0 1-25.13 7.16c-6.58 0-12.17-1.09-16.79-3.26a34.72 34.72 0 0 1-11.21-8.2 41.63 41.63 0 0 1-6.68-10.1h-1.04V256h-33.89Zm33.18-106.9c0 7.26 1 13.6 3.02 19 2.01 5.41 4.93 9.63 8.75 12.65 3.82 2.97 8.46 4.46 13.92 4.46 5.51 0 10.18-1.52 14-4.54 3.82-3.07 6.7-7.32 8.67-12.73 2.01-5.46 3.02-11.74 3.02-18.85 0-7.05-.98-13.26-2.94-18.61-1.96-5.36-4.85-9.55-8.67-12.57-3.82-3.02-8.51-4.53-14.08-4.53-5.52 0-10.18 1.45-14 4.37-3.77 2.92-6.66 7.05-8.67 12.4-2.02 5.36-3.02 11.68-3.02 18.94Zm-46.1-26.26-31.02 1.91a16.03 16.03 0 0 0-3.42-7.16 18.16 18.16 0 0 0-6.92-5.17c-2.81-1.33-6.18-1.99-10.1-1.99-5.25 0-9.68 1.11-13.29 3.34-3.6 2.18-5.4 5.1-5.4 8.75a9.41 9.41 0 0 0 3.5 7.4c2.33 2.02 6.33 3.63 12 4.85l22.12 4.46c11.88 2.44 20.73 6.36 26.57 11.77 5.83 5.4 8.75 12.51 8.75 21.32 0 8-2.36 15.03-7.08 21.08-4.67 6.04-11.09 10.76-19.25 14.16-8.12 3.34-17.48 5-28.08 5-16.18 0-29.06-3.36-38.66-10.1-9.55-6.78-15.14-16-16.78-27.68l33.32-1.75c1.01 4.94 3.45 8.7 7.32 11.3 3.87 2.54 8.83 3.82 14.88 3.82 5.94 0 10.7-1.14 14.31-3.42 3.67-2.34 5.52-5.33 5.57-9a9.35 9.35 0 0 0-3.9-7.55c-2.54-2.01-6.46-3.55-11.77-4.61l-21.16-4.22c-11.93-2.38-20.81-6.52-26.64-12.4-5.78-5.9-8.67-13.4-8.67-22.52 0-7.85 2.12-14.6 6.36-20.28 4.3-5.68 10.31-10.05 18.06-13.13 7.8-3.07 16.91-4.61 27.36-4.61 15.43 0 27.58 3.26 36.43 9.78 8.91 6.53 14.1 15.4 15.6 26.65Zm-151.45 35.32V88h33.89v122.18h-32.54v-22.2h-1.27a36.08 36.08 0 0 1-13.76 17.27c-6.36 4.35-14.13 6.52-23.3 6.52-8.17 0-15.36-1.85-21.56-5.56a38.28 38.28 0 0 1-14.56-15.84c-3.45-6.84-5.2-15.03-5.25-24.58V88h33.89v71.75c.05 7.21 1.99 12.91 5.8 17.1 3.82 4.2 8.94 6.29 15.36 6.29 4.08 0 7.9-.93 11.45-2.79a21.85 21.85 0 0 0 8.6-8.43c2.22-3.71 3.3-8.3 3.25-13.76ZM610.9 212.57c-12.52 0-23.28-2.65-32.3-7.96a53.78 53.78 0 0 1-20.68-22.27c-4.77-9.5-7.16-20.42-7.16-32.77 0-12.52 2.41-23.5 7.24-32.93a53.78 53.78 0 0 1 20.76-22.2c8.96-5.35 19.62-8.03 31.98-8.03 10.66 0 19.99 1.93 28 5.8a46.8 46.8 0 0 1 19 16.31c4.67 7 7.25 15.22 7.72 24.66H633.5c-.9-6.1-3.3-11-7.16-14.71-3.82-3.77-8.83-5.65-15.04-5.65-5.25 0-9.83 1.43-13.76 4.3-3.87 2.8-6.9 6.91-9.07 12.32s-3.26 11.96-3.26 19.65c0 7.8 1.06 14.42 3.18 19.89 2.18 5.46 5.23 9.62 9.15 12.49a22.72 22.72 0 0 0 13.76 4.3c3.88 0 7.35-.8 10.42-2.4 3.13-1.59 5.7-3.9 7.72-6.91a26.5 26.5 0 0 0 4.06-11.06h31.97c-.53 9.33-3.07 17.55-7.63 24.66-4.51 7.05-10.74 12.56-18.7 16.54-7.95 3.98-17.36 5.97-28.23 5.97Zm-126.18 0c-12.36 0-23.04-2.63-32.06-7.88a53.89 53.89 0 0 1-20.76-22.11c-4.88-9.5-7.32-20.5-7.32-33.01 0-12.62 2.44-23.65 7.32-33.1a53.25 53.25 0 0 1 20.76-22.1c9.02-5.3 19.7-7.96 32.06-7.96 12.36 0 23.02 2.65 31.98 7.95a53.1 53.1 0 0 1 20.84 22.12c4.88 9.44 7.32 20.47 7.32 33.09 0 12.51-2.44 23.52-7.32 33.01a53.74 53.74 0 0 1-20.84 22.11c-8.96 5.25-19.62 7.88-31.98 7.88Zm.16-26.25c5.62 0 10.31-1.6 14.08-4.78 3.77-3.23 6.6-7.63 8.51-13.2 1.96-5.57 2.94-11.9 2.94-19.01 0-7.1-.98-13.44-2.94-19.01-1.9-5.57-4.75-9.97-8.51-13.2-3.77-3.24-8.46-4.86-14.08-4.86-5.67 0-10.45 1.62-14.32 4.85-3.82 3.24-6.7 7.64-8.67 13.2-1.9 5.58-2.86 11.91-2.86 19.02 0 7.1.95 13.44 2.86 19.01 1.96 5.57 4.85 9.97 8.67 13.2 3.87 3.19 8.65 4.78 14.32 4.78Zm-165.59 23.86V47.28h107.86v28.39h-73.42v38.82H420v28.4h-66.26v67.3H319.3ZM256 128c0 70.7-57.3 128-128 128S0 198.7 0 128 57.3 0 128 0s128 57.3 128 128Zm-207.11 0a79.11 79.11 0 1 0 158.22 0 79.11 79.11 0 0 0-158.22 0Z"/>
  <path d="M176.79 127.9a48.9 48.9 0 1 1-97.79 0 48.9 48.9 0 0 1 97.79 0Z"/>
</svg>
